<svg xmlns="http://www.w3.org/2000/svg" viewBox="0 0 64 64">
  <rect width="64" height="64" rx="12" fill="#17694f"/>
  <path fill="#fff" d="M23.7 40.6c-5.6 0-9.7-4.1-9.7-9.8s4.1-9.8 9.7-9.8c4.5 0 8 2.6 9.1 6.6h-5.4c-.7-1.3-2-2.1-3.7-2.1-2.8 0-4.7 2.1-4.7 5.3s1.9 5.3 4.7 5.3c1.7 0 3-.8 3.7-2.1h5.4c-1.1 4-4.6 6.6-9.1 6.6Zm24.8 0c-4.7 0-8.1-2.3-8.3-6.3h5c.1 1.4 1 2.3 3.1 2.3 1.8 0 2.8-.7 2.8-1.8 0-3.5-10.5-1-10.5-8.3 0-3.4 2.9-5.5 7.2-5.5 4.5 0 7.4 2.2 7.7 6h-5c-.2-1.3-1-2.1-2.8-2.1-1.5 0-2.4.6-2.4 1.6 0 3.2 10.6.9 10.6 8.1 0 3.6-3 6-7.4 6Z"/>
</svg>
